<svg viewBox="0 0 120 120" xmlns="http://www.w3.org/2000/svg" role="img" aria-label="darkmode">
  <defs>
    <linearGradient id="bg_darkmode" x1="0" y1="0" x2="0" y2="1">
      <stop offset="0" stop-color="#5b6b8c"/><stop offset="1" stop-color="#34405c"/>
    </linearGradient>
    <linearGradient id="gloss_darkmode" x1="0" y1="0" x2="0" y2="1">
      <stop offset="0" stop-color="#ffffff" stop-opacity="0.45"/>
      <stop offset="0.5" stop-color="#ffffff" stop-opacity="0.06"/>
      <stop offset="1" stop-color="#ffffff" stop-opacity="0"/>
    </linearGradient>
    <filter id="ds_darkmode" x="-20%" y="-20%" width="140%" height="150%">
      <feDropShadow dx="0" dy="3" stdDeviation="3" flood-color="#000000" flood-opacity="0.18"/>
    </filter>
  </defs>
  <rect x="8" y="8" width="104" height="104" rx="26" fill="url(#bg_darkmode)" filter="url(#ds_darkmode)"/>
  <rect x="8" y="8" width="104" height="60" rx="26" fill="url(#gloss_darkmode)"/>
  <g transform="translate(60,60)">
  <path d="M10,-20 a22,22 0 1 0 12,34 a17,17 0 0 1 -12,-34 z" fill="#ffffff"/>
  <path d="M16,-22 l1.6,3.4 l3.6,0.4 l-2.6,2.6 l0.7,3.6 l-3.3,-1.8 l-3.3,1.8 l0.7,-3.6 l-2.6,-2.6 l3.6,-0.4 z" fill="#ffe27a"/>
</g>
</svg>