<svg xmlns="http://www.w3.org/2000/svg" viewBox="0 0 1480 980" preserveAspectRatio="xMidYMid slice">
  <defs>
    <radialGradient id="skyGlow" cx="50%" cy="13%" r="42%">
      <stop offset="0" stop-color="#073fc8"/>
      <stop offset="0.45" stop-color="#031c73"/>
      <stop offset="1" stop-color="#020824"/>
    </radialGradient>
    <linearGradient id="beam" x1="0" x2="0" y1="0" y2="1">
      <stop offset="0" stop-color="#00b9ff" stop-opacity="0.88"/>
      <stop offset="0.45" stop-color="#0078ff" stop-opacity="0.24"/>
      <stop offset="1" stop-color="#ffffff" stop-opacity="0"/>
    </linearGradient>
    <linearGradient id="field" x1="0" x2="1" y1="0" y2="0">
      <stop offset="0" stop-color="#1f9e2e"/>
      <stop offset="0.5" stop-color="#58b72f"/>
      <stop offset="1" stop-color="#229b2f"/>
    </linearGradient>
    <linearGradient id="clay" x1="0" x2="0" y1="0" y2="1">
      <stop offset="0" stop-color="#d66f22"/>
      <stop offset="1" stop-color="#ad4c18"/>
    </linearGradient>
    <filter id="soft" x="-20%" y="-20%" width="140%" height="140%">
      <feGaussianBlur stdDeviation="14"/>
    </filter>
  </defs>

  <rect width="1480" height="980" fill="url(#skyGlow)"/>
  <rect y="242" width="1480" height="126" fill="#0647c8" opacity="0.95"/>
  <rect y="287" width="1480" height="36" fill="#0a6cff" opacity="0.55"/>
  <path d="M0 414 C330 326 1150 326 1480 414 L1480 642 L0 642 Z" fill="url(#field)"/>

  <g opacity="0.22">
    <path d="M120 642 L680 372" stroke="#ffffff" stroke-width="7"/>
    <path d="M260 642 L730 368" stroke="#ffffff" stroke-width="7"/>
    <path d="M420 642 L780 368" stroke="#ffffff" stroke-width="7"/>
    <path d="M1360 642 L800 372" stroke="#ffffff" stroke-width="7"/>
    <path d="M1220 642 L750 368" stroke="#ffffff" stroke-width="7"/>
    <path d="M1060 642 L700 368" stroke="#ffffff" stroke-width="7"/>
  </g>

  <rect y="642" width="1480" height="338" fill="url(#clay)"/>
  <path d="M0 680 L354 806 L310 824 L0 714 Z" fill="#fff"/>
  <path d="M1480 680 L1126 806 L1170 824 L1480 714 Z" fill="#fff"/>
  <path d="M365 810 H634 L604 846 H238 Z" fill="#fff"/>
  <path d="M1115 810 H846 L876 846 H1242 Z" fill="#fff"/>
  <path d="M635 868 H845 L740 926 Z" fill="#e6e9ee"/>
  <path d="M658 844 H822 L845 868 H635 Z" fill="#fff"/>

  <g opacity="0.85">
    <path d="M0 110 C260 160 1220 160 1480 110" fill="none" stroke="#00a5ff" stroke-width="7"/>
    <path d="M0 114 C260 164 1220 164 1480 114" fill="none" stroke="#00143f" stroke-width="3"/>
    <g fill="#00baff">
      <circle cx="3" cy="109" r="8"/>
      <circle cx="54" cy="117" r="5"/>
      <circle cx="102" cy="124" r="5"/>
      <circle cx="151" cy="130" r="5"/>
      <circle cx="201" cy="136" r="15"/>
      <circle cx="252" cy="141" r="5"/>
      <circle cx="303" cy="145" r="5"/>
      <circle cx="354" cy="149" r="5"/>
      <circle cx="408" cy="151" r="15"/>
      <circle cx="462" cy="153" r="5"/>
      <circle cx="515" cy="155" r="5"/>
      <circle cx="570" cy="156" r="5"/>
      <circle cx="740" cy="158" r="16"/>
      <circle cx="910" cy="156" r="5"/>
      <circle cx="965" cy="155" r="5"/>
      <circle cx="1018" cy="153" r="5"/>
      <circle cx="1072" cy="151" r="15"/>
      <circle cx="1126" cy="149" r="5"/>
      <circle cx="1177" cy="145" r="5"/>
      <circle cx="1228" cy="141" r="5"/>
      <circle cx="1279" cy="136" r="15"/>
      <circle cx="1329" cy="130" r="5"/>
      <circle cx="1378" cy="124" r="5"/>
      <circle cx="1426" cy="117" r="5"/>
      <circle cx="1477" cy="109" r="8"/>
    </g>
  </g>

  <g opacity="0.78">
    <rect x="160" y="128" width="120" height="390" fill="url(#beam)" filter="url(#soft)"/>
    <rect x="680" y="128" width="120" height="490" fill="url(#beam)" filter="url(#soft)"/>
    <rect x="1200" y="128" width="120" height="390" fill="url(#beam)" filter="url(#soft)"/>
  </g>

  <g fill="#1787ff" opacity="0.86">
    <circle cx="60" cy="244" r="4"/>
    <circle cx="132" cy="260" r="4"/>
    <circle cx="210" cy="238" r="4"/>
    <circle cx="294" cy="258" r="4"/>
    <circle cx="372" cy="242" r="4"/>
    <circle cx="454" cy="262" r="4"/>
    <circle cx="536" cy="238" r="4"/>
    <circle cx="620" cy="260" r="4"/>
    <circle cx="702" cy="242" r="4"/>
    <circle cx="782" cy="262" r="4"/>
    <circle cx="864" cy="238" r="4"/>
    <circle cx="948" cy="260" r="4"/>
    <circle cx="1030" cy="242" r="4"/>
    <circle cx="1112" cy="262" r="4"/>
    <circle cx="1194" cy="238" r="4"/>
    <circle cx="1278" cy="260" r="4"/>
    <circle cx="1360" cy="242" r="4"/>
    <circle cx="1432" cy="260" r="4"/>
    <circle cx="90" cy="302" r="4"/>
    <circle cx="172" cy="320" r="4"/>
    <circle cx="250" cy="300" r="4"/>
    <circle cx="332" cy="320" r="4"/>
    <circle cx="414" cy="302" r="4"/>
    <circle cx="496" cy="320" r="4"/>
    <circle cx="578" cy="300" r="4"/>
    <circle cx="660" cy="320" r="4"/>
    <circle cx="742" cy="302" r="4"/>
    <circle cx="824" cy="320" r="4"/>
    <circle cx="906" cy="300" r="4"/>
    <circle cx="988" cy="320" r="4"/>
    <circle cx="1070" cy="302" r="4"/>
    <circle cx="1152" cy="320" r="4"/>
    <circle cx="1234" cy="300" r="4"/>
    <circle cx="1316" cy="320" r="4"/>
    <circle cx="1398" cy="302" r="4"/>
  </g>

  <rect y="365" width="1480" height="56" fill="#0d64d8" opacity="0.7"/>
  <g fill="#88b8ff" opacity="0.16" font-family="Arial, sans-serif" font-weight="700" font-size="26">
    <text x="42" y="405">BASEBALL</text>
    <text x="322" y="405">BASEBALL</text>
    <text x="602" y="405">BASEBALL</text>
    <text x="882" y="405">BASEBALL</text>
    <text x="1162" y="405">BASEBALL</text>
  </g>
</svg>
