<svg viewBox="0 0 120 120" xmlns="http://www.w3.org/2000/svg" role="img" aria-label="team-change">
  <defs>
    <linearGradient id="bg_team_change" x1="0" y1="0" x2="0" y2="1">
      <stop offset="0" stop-color="#ff8aa8"/><stop offset="1" stop-color="#e8517f"/>
    </linearGradient>
    <linearGradient id="gloss_team_change" x1="0" y1="0" x2="0" y2="1">
      <stop offset="0" stop-color="#ffffff" stop-opacity="0.45"/>
      <stop offset="0.5" stop-color="#ffffff" stop-opacity="0.06"/>
      <stop offset="1" stop-color="#ffffff" stop-opacity="0"/>
    </linearGradient>
    <filter id="ds_team_change" x="-20%" y="-20%" width="140%" height="150%">
      <feDropShadow dx="0" dy="3" stdDeviation="3" flood-color="#000000" flood-opacity="0.18"/>
    </filter>
  </defs>
  <rect x="8" y="8" width="104" height="104" rx="30" fill="url(#bg_team_change)" filter="url(#ds_team_change)"/>
  <rect x="8" y="8" width="104" height="60" rx="30" fill="url(#gloss_team_change)"/>
  <g transform="translate(60,60)">
  <path d="M0,-18 l4.9,10 l11,1.3 l-8,7.8 l1.9,10.9 l-9.8,-5.2 l-9.8,5.2 l1.9,-10.9 l-8,-7.8 l11,-1.3 z" fill="#ffffff"/>
  <g fill="#ffffff">
    <g transform="translate(0,-3)"><path d="M-34,-10 a34,34 0 0 1 52,-17 l0,-9 l15,17 l-18,9 l0,-9 a25,25 0 0 0 -39,14 z"/></g>
    <g transform="rotate(180)"><path d="M-34,-10 a34,34 0 0 1 52,-17 l0,-9 l15,17 l-18,9 l0,-9 a25,25 0 0 0 -39,14 z"/></g>
  </g>
</g>
</svg>